Simulation
nRows=46
nColumns=15
endheader
time  TH_x TH_y TH_z SC_y  SC_z  SC_x  AC_y  AC_z  AC_x  GH_y  GH_z  GH_yy  EL_x  PS_y
2.4010000000000002  0.000000  0.000000  0.000000  -34.6136559154131  8.922806163711435  -0.6788632125441117  51.00204095980902  12.413459268262649  4.333406499718613  -7.837993750610884  22.464090342548253  21.24172405543812  11.228462730437514  120.000000
2.4490200000000004  0.000000  0.000000  0.000000  -33.16172739074709  8.135852026261396  -1.7830760175259308  51.12444163262164  12.164409416370384  4.184883794309201  -9.06661988110332  18.922707044823195  26.602059479460994  11.535235683745816  120.000000
2.49704  0.000000  0.000000  0.000000  -31.82896816116921  7.47557319552707  -2.6734811368468954  51.31624716636683  11.989685219131125  4.156093931645042  -11.35152657104943  15.70145775822093  33.2940916780883  12.081048116426798  120.000000
2.5450600000000003  0.000000  0.000000  0.000000  -30.688028044328746  6.9640619399794295  -3.329990791876429  51.58004395788986  11.888609618467024  4.223790916523466  -14.732000223635776  12.838612582261193  41.16029638609773  12.877933019649477  120.000000
2.5930800000000005  0.000000  0.000000  0.000000  -29.800351675820036  6.611289021977714  -3.7426688595255113  51.90617273629306  11.86272187735371  4.358358597796817  -19.03829264630735  10.322852869742693  49.825256017681625  13.86418396150496  120.000000
2.6411000000000002  0.000000  0.000000  0.000000  -29.206674690035086  6.414438932484294  -3.9154047731006947  52.2715669748984  11.91431155445277  4.525371988566824  -23.884090070797704  8.089318275030351  58.70970677926255  14.936210727366323  120.000000
2.6891200000000004  0.000000  0.000000  0.000000  -28.92215927255969  6.354135176820458  -3.864885609154485  52.630768559137294  12.040283288683954  4.6951331524182605  -28.850707409121917  6.04522140820602  67.23967631827638  15.982561543308199  120.000000
2.7371400000000006  0.000000  0.000000  0.000000  -28.92647883912165  6.405482551554504  -3.619676922564649  52.92671873118254  12.23213242037776  4.839823514856553  -33.804421512854994  4.119747203644191  75.18657769581343  16.90788581580996  120.000000
2.7851600000000003  0.000000  0.000000  0.000000  -29.160050099115672  6.55102653206512  -3.2205584296601666  53.12067377486803  12.477547661380045  4.92731529165178  -39.43952134020449  2.2957420359657643  83.222703584863  17.646987181399034  120.000000
2.8331800000000005  0.000000  0.000000  0.000000  -29.536761548701204  6.767414861596474  -2.7130034335456354  53.19557449673713  12.753618981610627  4.939976042716213  -55.040281295556376  0.6155926707732304  100.67837391772011  18.16582357970631  120.000000
2.8812000000000006  0.000000  0.000000  0.000000  -29.96894057792408  7.020599931682431  -2.1419195996334714  53.156328604381684  13.027818164366977  4.8824792259931655  149.40139997247255  0.9569244145642347  -102.36511578719067  18.456909923375072  120.000000
2.9292200000000004  0.000000  0.000000  0.000000  -30.38505190607135  7.27758441663075  -1.5535063317462399  53.03013280245612  13.268977590184866  4.770067432933337  140.07450023308604  2.276366446833917  -91.99396461686061  18.53509967115987  120.000000
2.9772400000000006  0.000000  0.000000  0.000000  -30.737195434847454  7.512612991416261  -0.9932311127960914  52.851045443679844  13.454014145192481  4.6213108698573295  135.28793242474535  3.38941764307132  -86.4230277369906  18.4349995169906  120.000000
3.0252600000000003  0.000000  0.000000  0.000000  -31.00050756909862  7.708138881446664  -0.502139954611964  52.65056767367334  13.569868018065131  4.452275064570921  130.94619260190686  4.29327085100698  -81.48449739137126  18.20764775622166  120.000000
3.0732800000000005  0.000000  0.000000  0.000000  -31.160284286477122  7.851459987620654  -0.11550998398729191  52.457573949476156  13.606482957910632  4.2765867637894255  126.36313223161208  5.010715854149386  -76.44121192785843  17.915812483081453  120.000000
3.1213000000000006  0.000000  0.000000  0.000000  -31.20398443426062  7.930759314116105  0.13791349221903335  52.29392685531908  13.552420036558258  4.10713060725476  121.31523947572465  5.582359335171633  -71.03464123368457  17.621739541890495  120.000000
3.1693200000000004  0.000000  0.000000  0.000000  -31.12579061946061  7.941293088123925  0.23655875584839817  52.166742889203185  13.40431628394773  3.9506447429589135  115.73709843960737  6.047143512435805  -65.17911511938875  17.365133450585784  120.000000
3.2173400000000005  0.000000  0.000000  0.000000  -30.934256803220904  7.890185404976927  0.16902924524071528  52.065167043628065  13.174007906087578  3.8071362155890722  109.57812358788097  6.427268995818259  -58.817369318843156  17.144430369999395  120.000000
3.2653600000000003  0.000000  0.000000  0.000000  -30.650910576837436  7.7880354991447085  -0.0648802352641073  51.96850830263319  12.885791477083146  3.6779562585562457  102.71391033711119  6.741704221868605  -51.829834679507265  16.91949906979148  120.000000
3.3133800000000004  0.000000  0.000000  0.000000  -30.301358513479936  7.639405664611942  -0.45603063559630946  51.859758257309245  12.570945083508231  3.572201761054746  94.98850958778458  7.032573535671139  -44.07415616017238  16.63236741399597  120.000000
3.3614000000000006  0.000000  0.000000  0.000000  -29.9122947382229  7.444705525950558  -0.9882947288895017  51.73162802715619  12.265970085421236  3.5005011749111565  86.35219227828406  7.371757682599993  -35.52171660016817  16.23067542882052  120.000000
3.4094200000000003  0.000000  0.000000  0.000000  -29.511978383909902  7.207016315662408  -1.6399829523641996  51.586694485279196  12.009714286750325  3.467624888982775  76.98682274251432  7.849301737269008  -26.381100035468524  15.688667852999846  120.000000
3.4574400000000005  0.000000  0.000000  0.000000  -29.12900611030122  6.932156865148189  -2.382402757049734  51.433115979122796  11.837861309837267  3.47561193657564  67.34518151445666  8.557592036220159  -17.13447540066495  15.022408908962886  120.000000
3.5054600000000007  0.000000  0.000000  0.000000  -28.787842767192274  6.629418003415595  -3.1792247575670363  51.28483256346237  11.779655110490635  3.52752445139985  58.05853280665384  9.57521743986801  -8.44234322672694  14.286943575315286  120.000000
3.5534800000000004  0.000000  0.000000  0.000000  -28.50844882375178  6.314233621361341  -3.9877357375605516  51.1597171694641  11.856985361868302  3.627582942064797  49.710891992318224  10.9486305742063  -0.9168765864886401  13.557271136623106  120.000000
3.6015000000000006  0.000000  0.000000  0.000000  -28.304462982768346  6.014778478253627  -4.759502290892265  51.06971207223602  12.088069743805335  3.7795528975379584  42.60611488373169  12.678105371429542  5.111750603712426  12.903211872954115  120.000000
3.6495200000000008  0.000000  0.000000  0.000000  -28.182319027049104  5.770317388873637  -5.442311602204052  51.016922520414155  12.490258170603807  3.985854234158369  36.74293768967929  14.723889913862124  9.619681715493462  12.367949008875259  120.000000
3.6975400000000005  0.000000  0.000000  0.000000  -28.141110688419182  5.609424833698485  -5.982838824845287  50.988120629463666  13.070223175195089  4.257808712498996  31.949331524120353  17.014030062201865  12.758893741077806  11.96197312396057  120.000000
3.7455600000000007  0.000000  0.000000  0.000000  -28.165817326133062  5.55085071575181  -6.333140915501067  50.97084615932691  13.821841637658059  4.611159197661957  28.022507226156904  19.46079851312336  14.724995072194012  11.674725421716378  120.000000
3.7935800000000004  0.000000  0.000000  0.000000  -28.237625658851215  5.618326966319926  -6.458551033859866  50.971690819585994  14.731789811841178  5.045813023856237  24.78618886627561  21.985866789504808  15.70157865316957  11.484747279373279  120.000000
3.8416000000000006  0.000000  0.000000  0.000000  -28.347562111392936  5.824408734830561  -6.336786510127632  50.99304633959097  15.769762408867505  5.555323888331939  22.0662402896687  24.52444176029434  15.889775329028845  11.363435517085955  120.000000
3.8896200000000007  0.000000  0.000000  0.000000  -28.49950876692411  6.159278943879957  -5.956420699890092  51.02621470265958  16.881412252178016  6.139893915339261  19.71143972078091  27.026953730466484  15.491664770023545  11.280732206145535  120.000000
3.9376400000000005  0.000000  0.000000  0.000000  -28.699057133261153  6.601452064123963  -5.319363383887845  51.069437095761714  18.00033940928394  6.796694925041272  17.61643517470234  29.462007317976568  14.686804497807966  11.210559512061021  120.000000
3.9856600000000006  0.000000  0.000000  0.000000  -28.949401499619743  7.124130260847275  -4.4385913103604935  51.12773009426604  19.06066425470817  7.518110694633243  15.712555756823592  31.8134014860471  13.634064718315297  11.133019490567827  120.000000
4.03368  0.000000  0.000000  0.000000  -29.25235152548974  7.699276182541969  -3.33612753375334  51.209331957229416  20.00579593780658  8.292429957530036  13.95870302073479  34.07718406588208  12.468678396543153  11.03495654468007  120.000000
4.0817000000000005  0.000000  0.000000  0.000000  -29.60904737225456  8.300679962657858  -2.041551860648641  51.322262800760065  20.79492857894716  9.103542701925306  12.330530924384316  36.2581420571068  11.302315266839818  10.912360368571758  120.000000
4.129720000000001  0.000000  0.000000  0.000000  -30.02174334192653  8.9061375122108  -0.5899592051689858  51.47194248168863  21.405180785778523  9.931530903812579  10.813486797361266  38.36682611654318  10.220648701386946  10.770846462211539  120.000000
4.177740000000001  0.000000  0.000000  0.000000  -30.49193687755989  9.497915708384747  0.9801536372159277  51.660537170289444  21.83117803096844  10.754579914374423  9.399711787862497  40.416096940741895  9.281281010498255  10.623939459330701  120.000000
4.225760000000001  0.000000  0.000000  0.000000  -31.01831550096036  10.06193481281576  2.628768654240065  51.8866985584463  22.082087287030337  11.55212073211399  8.086823960553694  42.416919598697355  8.511509174841322  10.489736999754696  120.000000
4.27378  0.000000  0.000000  0.000000  -31.595581063897313  10.587032181375164  4.315704579371853  52.14630324307966  22.178376891226073  12.306275374780757  6.876144491549179  44.37421271520081  7.907635073306782  10.389352146251376  120.000000
4.3218000000000005  0.000000  0.000000  0.000000  -32.21477174054357  11.063939841068626  6.002618294390732  52.43270547337124  22.148437609249246  13.002879890156468  5.77017458735167  46.283740955351774  7.436379685874125  10.346821160380886  120.000000
4.369820000000001  0.000000  0.000000  0.000000  -32.863883795391295  11.484247896654145  7.6549887803987735  52.7369463807766  22.025060628664637  13.631809596835646  4.769753058338132  48.13177606876485  7.0421328302770805  10.388991833708749  120.000000
4.417840000000001  0.000000  0.000000  0.000000  -33.52857689250866  11.84014743927693  9.243767339957245  53.0480472648932  21.84185528903284  14.187178292217316  3.872705315204285  49.89833276171454  6.660364246623539  10.542715784510426  120.000000
4.465860000000001  0.000000  0.000000  0.000000  -34.192224783254055  12.125569292018758  10.745502882036424  53.35476826254689  21.629822205633165  14.665942155603295  3.0746787613374624  51.56244163033861  6.2344730078947705  10.827654075076213  120.000000
4.51388  0.000000  0.000000  0.000000  -34.83713078787879  12.336922935867069  12.140111533360407  53.646997454942166  21.413158937177197  15.066407469408732  2.3722981483490795  53.107156448724005  5.730587350167665  11.243941372795518  120.000000
4.5619000000000005  0.000000  0.000000  0.000000  -35.444861137625125  12.474889700841903  13.407214623671893  53.91728271733438  21.20690136440069  15.385691870187271  1.7682856833410274  54.5225233099117  5.145210562549091  11.761422877268807  120.000000
